<?xml version="1.0" encoding="UTF-8"?>
<!DOCTYPE svg PUBLIC "-//W3C//DTD SVG 1.1//EN" "http://www.w3.org/Graphics/SVG/1.1/DTD/svg11.dtd">
<!-- Creator: CorelDRAW 2020 (64-Bit Evaluation Version) -->
<svg xmlns="http://www.w3.org/2000/svg" xml:space="preserve" width="89.047mm" height="90.824mm" version="1.1" style="shape-rendering:geometricPrecision; text-rendering:geometricPrecision; image-rendering:optimizeQuality; fill-rule:evenodd; clip-rule:evenodd"
viewBox="0 0 8904.7 9082.4"
 xmlns:xlink="http://www.w3.org/1999/xlink"
 xmlns:xodm="http://www.corel.com/coreldraw/odm/2003">
 <defs>
  <style type="text/css">
   <![CDATA[
    .fil2 {fill:#000D1D}
    .fil0 {fill:#000D1D}
    .fil1 {fill:url(#id0)}
   ]]>
  </style>
  <linearGradient id="id0" gradientUnits="userSpaceOnUse" x1="953.6" y1="4531.88" x2="9799.92" y2="4720.79">
   <stop offset="0" style="stop-opacity:1; stop-color:#916B3A"/>
   <stop offset="1" style="stop-opacity:1; stop-color:#E7CA88"/>
  </linearGradient>
 </defs>
 <g id="Layer_x0020_1">
  <metadata id="CorelCorpID_0Corel-Layer"/>
  <polygon class="fil0" points="3536.88,689.9 4431.92,8.47 5276.07,659.39 6405.04,435.62 6893.22,1412.02 8001.83,1717.14 8022.17,2856.26 8876.59,3547.89 8393.53,4534.47 8897,5561.68 8052.82,6253.31 7986.75,7361.92 6913.75,7646.65 6410.25,8633.22 5321.99,8424.72 4432.03,9090.91 3552.17,8404.38 2474.08,8638.32 1940.07,7616.16 872.13,7382.22 844.13,6245.65 -7.68,5536.22 452.54,4529.32 -5.1,3527.53 841.61,2825.73 877.22,1696.78 1940.14,1457.74 2443.59,471.16 "/>
  <polygon class="fil1" points="3650.82,1174.36 4433.52,578.45 5171.72,1147.67 6158.99,951.99 6585.9,1805.84 7555.36,2072.66 7573.15,3068.81 8320.33,3673.63 7897.9,4536.38 8338.18,5434.66 7599.96,6039.48 7542.17,7008.95 6603.85,7257.94 6163.55,8120.69 5211.87,7938.36 4433.62,8520.93 3664.19,7920.57 2721.41,8125.15 2254.43,7231.28 1320.53,7026.7 1296.04,6032.79 551.14,5412.4 953.6,4531.88 553.4,3655.82 1293.84,3042.11 1324.98,2054.85 2254.49,1845.82 2694.75,983.07 "/>
  <polygon class="fil2" points="3666.98,1243.06 4433.74,659.28 5156.92,1216.92 6124.1,1025.21 6542.31,1861.69 7492.05,2123.08 7509.47,3098.95 8241.44,3691.46 7827.61,4536.65 8258.93,5416.65 7535.73,6009.16 7479.12,6958.89 6559.9,7202.82 6128.56,8048 5196.26,7869.38 4433.84,8440.1 3680.08,7851.96 2756.49,8052.37 2299.01,7176.7 1384.11,6976.28 1360.13,6002.6 630.39,5394.84 1024.66,4532.24 632.6,3674.01 1357.97,3072.79 1388.48,2105.63 2299.07,1900.85 2730.37,1055.66 "/>
 </g>
</svg>
